<svg xmlns="http://www.w3.org/2000/svg" viewBox="0 0 24 24" fill="currentColor"><rect x="2" y="2" width="4" height="4" rx="0.5"/><rect x="7" y="2" width="4" height="4" rx="0.5"/><rect x="12" y="2" width="4" height="4" rx="0.5"/><rect x="17" y="2" width="4" height="4" rx="0.5"/><rect x="2" y="7" width="4" height="4" rx="0.5"/><rect x="7" y="7" width="4" height="4" rx="0.5"/><rect x="12" y="7" width="4" height="4" rx="0.5"/><rect x="17" y="7" width="4" height="4" rx="0.5"/><rect x="2" y="12" width="4" height="4" rx="0.5"/><rect x="7" y="12" width="4" height="4" rx="0.5"/><rect x="12" y="12" width="4" height="4" rx="0.5"/><rect x="17" y="12" width="4" height="4" rx="0.5"/></svg>
